# xmcd
#
# Track frame offsets: 
#        150
#        16803
#        32796
#        52149
#        70903
#        92055
#        107058
#        123711
#        145463
#
# Disc length: 2205 seconds
#
# Revision: 0
# Processed by: cddbd v1.4PL0 Copyright (c) Steve Scherf et al.
# Submitted via: ExactAudioCopy v0.95a3
#
DISCID=82089b09
DTITLE=Валерий Шаповалов - Туда Нельзя!
DYEAR=1900
DGENRE=Pop
TTITLE0=Стой, кто идет!? (Туда нельзя!)
TTITLE1=Гуманоид
TTITLE2=Карашётн
TTITLE3=Целитель
TTITLE4=Колыбельный марш (Lullaby)
TTITLE5=Проснулся я Tonight
TTITLE6=Газет. Объявл.
TTITLE7=Кем быть?
TTITLE8=Бесконечность
EXTD=
EXTT0=
EXTT1=
EXTT2=
EXTT3=
EXTT4=
EXTT5=
EXTT6=
EXTT7=
EXTT8=
PLAYORDER=
